<?xml version="1.0" encoding="utf-8"?>
<!-- Generator: Adobe Illustrator 21.0.2, SVG Export Plug-In . SVG Version: 6.00 Build 0)  -->
<svg version="1.1" id="Layer_1" xmlns="http://www.w3.org/2000/svg" xmlns:xlink="http://www.w3.org/1999/xlink" x="0px" y="0px"
	 viewBox="0 0 1361.8 1536" style="enable-background:new 0 0 1361.8 1536;" xml:space="preserve">
<style type="text/css">
	.st0{fill:#1572B6;}
	.st1{fill:#35A8DB;}
	.st2{fill:#E9E9E8;}
	.st3{fill:#FFFFFE;}
	.st4{fill:none;}
</style>
<g id="Layer_x0020_1">
	<g id="_337846024">
		<polygon id="_337847128" class="st0" points="1239.4,1371.1 1360.2,17.8 1361.8,0 1344,0 17.8,0 0,0 1.6,17.8 122.3,1371.4 
			123.3,1382.6 134.1,1385.7 675.7,1536 684.4,1536 1227.5,1385.4 1238.4,1382.4 		"/>
		<polygon id="_337847104" class="st1" points="1256.8,96 680.9,96 680.9,1437.4 1148.6,1307.7 		"/>
		<g>
			<polygon id="_337846984" class="st2" points="680.2,456.4 274,625.5 287.5,793 680.2,625.1 1098,446.5 1115.3,275.2 			"/>
			<polygon id="_337846144" class="st2" points="680.2,275.2 683.3,275.2 686.7,275.2 690.1,275.2 693.5,275.2 697,275.2 
				700.4,275.2 703.8,275.2 707.3,275.2 710.7,275.2 714.1,275.2 717.5,275.2 721,275.2 724.4,275.2 727.8,275.2 731.3,275.2 
				734.7,275.2 738.1,275.2 741.5,275.2 745,275.2 748.4,275.2 751.8,275.2 755.3,275.2 758.7,275.2 762.1,275.2 765.6,275.2 
				769,275.2 772.4,275.2 775.8,275.2 779.3,275.2 782.7,275.2 786.1,275.2 789.6,275.2 793,275.2 796.4,275.2 799.8,275.2 
				803.3,275.2 806.7,275.2 810.1,275.2 813.6,275.2 817,275.2 820.4,275.2 823.9,275.2 827.3,275.2 830.7,275.2 834.1,275.2 
				837.6,275.2 841,275.2 844.4,275.2 847.9,275.2 851.3,275.2 854.7,275.2 858.1,275.2 861.6,275.2 865,275.2 868.4,275.2 
				871.9,275.2 875.3,275.2 878.7,275.2 882.1,275.2 885.6,275.2 889,275.2 892.4,275.2 895.9,275.2 899.3,275.2 902.7,275.2 
				906.2,275.2 909.6,275.2 913,275.2 916.4,275.2 919.9,275.2 923.3,275.2 926.7,275.2 930.2,275.2 933.6,275.2 937,275.2 
				940.4,275.2 943.9,275.2 947.3,275.2 950.7,275.2 954.2,275.2 957.6,275.2 961,275.2 964.4,275.2 967.9,275.2 971.3,275.2 
				974.7,275.2 978.2,275.2 981.6,275.2 985,275.2 988.5,275.2 991.9,275.2 995.3,275.2 998.7,275.2 1002.2,275.2 1005.6,275.2 
				1009,275.2 1012.5,275.2 1015.9,275.2 1019.3,275.2 1022.7,275.2 1026.2,275.2 1029.6,275.2 1033,275.2 1036.5,275.2 
				1039.9,275.2 1043.3,275.2 1046.8,275.2 1050.2,275.2 1053.6,275.2 1057,275.2 1060.5,275.2 1063.9,275.2 1067.3,275.2 
				1070.8,275.2 1074.2,275.2 1077.6,275.2 1081,275.2 1084.5,275.2 1087.9,275.2 1091.3,275.2 1094.8,275.2 1098.2,275.2 
				1101.6,275.2 1105,275.2 1108.5,275.2 1111.9,275.2 1115.3,275.2 1111.9,309.1 1108.5,343 1105,376.9 1101.6,410.8 1098.2,444.7 
				1098,446.5 1098,446.5 1094.8,446.5 1091.3,446.5 1087.9,446.5 1084.5,446.5 1081,446.5 1077.6,446.5 1074.2,446.5 1070.8,446.5 
				1067.3,446.5 1063.9,446.5 1060.5,446.5 1057,446.5 1053.6,446.5 1050.2,446.5 1046.8,446.5 1043.3,446.5 1039.9,446.5 
				1036.5,446.5 1033,446.5 1029.6,446.5 1026.2,446.5 1022.7,446.5 1019.3,446.5 1015.9,446.5 1012.5,446.5 1009,446.5 
				1005.6,446.5 1002.2,446.5 998.7,446.5 995.3,446.5 991.9,446.5 988.5,446.5 985,446.5 981.6,446.5 978.2,446.5 974.7,446.5 
				971.3,446.5 967.9,446.5 964.4,446.5 961,446.5 957.6,446.5 954.2,446.5 950.7,446.5 947.3,446.5 943.9,446.5 940.4,446.5 
				937,446.5 933.6,446.5 930.2,446.5 926.7,446.5 923.3,446.5 919.9,446.5 916.4,446.5 913,446.5 909.6,446.5 906.2,446.5 
				902.7,446.5 899.3,446.5 895.9,446.5 892.4,446.5 889,446.5 885.6,446.5 882.1,446.5 878.7,446.5 875.3,446.5 871.9,446.5 
				868.4,446.5 865,446.5 861.6,446.5 858.1,446.5 854.7,446.5 851.3,446.5 847.9,446.5 844.4,446.5 841,446.5 837.6,446.5 
				834.1,446.5 830.7,446.5 827.3,446.5 823.9,446.5 820.4,446.5 817,446.5 813.6,446.5 810.1,446.5 806.7,446.5 803.3,446.5 
				799.8,446.5 796.4,446.5 793,446.5 789.6,446.5 786.1,446.5 782.7,446.5 779.3,446.5 775.8,446.5 772.4,446.5 769,446.5 
				765.6,446.5 762.1,446.5 758.7,446.5 755.3,446.5 751.8,446.5 748.4,446.5 745,446.5 741.5,446.5 738.1,446.5 734.7,446.5 
				731.3,446.5 727.8,446.5 724.4,446.5 721,446.5 717.5,446.5 714.1,446.5 710.7,446.5 707.3,446.5 703.9,446.5 703.8,446.5 
				700.4,446.5 697,446.5 693.5,446.5 690.1,446.5 686.7,446.5 683.3,446.5 680.7,446.5 680.2,446.5 679.8,446.5 676.4,446.5 
				673,446.5 669.5,446.5 666.1,446.5 662.7,446.5 659.2,446.5 655.8,446.5 652.4,446.5 649,446.5 645.5,446.5 642.1,446.5 
				638.7,446.5 635.2,446.5 631.8,446.5 628.4,446.5 625,446.5 621.5,446.5 618.1,446.5 614.7,446.5 611.2,446.5 607.8,446.5 
				604.4,446.5 600.9,446.5 597.5,446.5 594.1,446.5 590.7,446.5 587.2,446.5 583.8,446.5 580.4,446.5 576.9,446.5 573.5,446.5 
				570.1,446.5 566.7,446.5 563.2,446.5 559.8,446.5 556.4,446.5 552.9,446.5 549.5,446.5 546.1,446.5 542.7,446.5 539.2,446.5 
				535.8,446.5 532.4,446.5 528.9,446.5 525.5,446.5 522.1,446.5 518.6,446.5 515.2,446.5 511.8,446.5 508.4,446.5 504.9,446.5 
				501.5,446.5 498.1,446.5 494.6,446.5 491.2,446.5 487.8,446.5 484.4,446.5 480.9,446.5 477.5,446.5 474.1,446.5 470.6,446.5 
				467.2,446.5 463.8,446.5 460.3,446.5 456.9,446.5 453.5,446.5 450.1,446.5 446.6,446.5 443.2,446.5 439.8,446.5 436.3,446.5 
				432.9,446.5 429.5,446.5 426.1,446.5 422.6,446.5 419.2,446.5 415.8,446.5 412.3,446.5 408.9,446.5 405.5,446.5 402.1,446.5 
				398.6,446.5 395.2,446.5 391.8,446.5 388.3,446.5 384.9,446.5 381.5,446.5 378,446.5 374.6,446.5 371.2,446.5 367.8,446.5 
				364.3,446.5 360.9,446.5 357.5,446.5 354,446.5 350.6,446.5 347.2,446.5 343.8,446.5 340.3,446.5 336.9,446.5 333.5,446.5 
				330,446.5 326.6,446.5 323.2,446.5 319.7,446.5 316.3,446.5 312.9,446.5 309.5,446.5 306,446.5 302.6,446.5 299.2,446.5 
				295.7,446.5 292.3,446.5 288.9,446.5 285.5,446.5 282,446.5 278.6,446.5 275.2,446.5 271.7,446.5 268.3,446.5 264.9,446.5 
				261.5,446.5 258.6,446.5 258,441.6 254.6,413.9 251.2,386.2 247.7,358.4 244.3,330.7 240.9,302.9 237.4,275.2 240.9,275.2 
				244.3,275.2 247.7,275.2 251.2,275.2 254.6,275.2 258,275.2 261.5,275.2 264.9,275.2 268.3,275.2 271.7,275.2 275.2,275.2 
				278.6,275.2 282,275.2 285.5,275.2 288.9,275.2 292.3,275.2 295.7,275.2 299.2,275.2 302.6,275.2 306,275.2 309.5,275.2 
				312.9,275.2 316.3,275.2 319.7,275.2 323.2,275.2 326.6,275.2 330,275.2 333.5,275.2 336.9,275.2 340.3,275.2 343.8,275.2 
				347.2,275.2 350.6,275.2 354,275.2 357.5,275.2 360.9,275.2 364.3,275.2 367.8,275.2 371.2,275.2 374.6,275.2 378,275.2 
				381.5,275.2 384.9,275.2 388.3,275.2 391.8,275.2 395.2,275.2 398.6,275.2 402.1,275.2 405.5,275.2 408.9,275.2 412.3,275.2 
				415.8,275.2 419.2,275.2 422.6,275.2 426.1,275.2 429.5,275.2 432.9,275.2 436.3,275.2 439.8,275.2 443.2,275.2 446.6,275.2 
				450.1,275.2 453.5,275.2 456.9,275.2 460.3,275.2 463.8,275.2 467.2,275.2 470.6,275.2 474.1,275.2 477.5,275.2 480.9,275.2 
				484.4,275.2 487.8,275.2 491.2,275.2 494.6,275.2 498.1,275.2 501.5,275.2 504.9,275.2 508.4,275.2 511.8,275.2 515.2,275.2 
				518.6,275.2 522.1,275.2 525.5,275.2 528.9,275.2 532.4,275.2 535.8,275.2 539.2,275.2 542.7,275.2 546.1,275.2 549.5,275.2 
				552.9,275.2 556.4,275.2 559.8,275.2 563.2,275.2 566.7,275.2 570.1,275.2 573.5,275.2 576.9,275.2 580.4,275.2 583.8,275.2 
				587.2,275.2 590.7,275.2 594.1,275.2 597.5,275.2 600.9,275.2 604.4,275.2 607.8,275.2 611.2,275.2 614.7,275.2 618.1,275.2 
				621.5,275.2 625,275.2 628.4,275.2 631.8,275.2 635.2,275.2 638.7,275.2 642.1,275.2 645.5,275.2 649,275.2 652.4,275.2 
				655.8,275.2 659.2,275.2 662.7,275.2 666.1,275.2 669.5,275.2 673,275.2 676.4,275.2 679.8,275.2 			"/>
			<polygon id="_337846384" class="st2" points="274.7,625.6 1083.3,625.6 1068.5,795 288.1,793 			"/>
			<polygon id="_337846192" class="st2" points="299.9,887.4 476.8,887.5 488.3,1026 680.2,1073.6 877.3,1018.3 890.6,791.8 
				1069,789 1037,1156.9 680.9,1260.9 322.2,1155 			"/>
		</g>
		<g>
			<polygon id="_337846792" class="st3" points="680.9,624.8 1098,446.5 1115.3,275.2 680.9,456.1 			"/>
			<polygon id="_337846480" class="st3" points="680.9,275.2 683.3,275.2 686.7,275.2 690.1,275.2 693.5,275.2 697,275.2 
				700.4,275.2 703.8,275.2 707.3,275.2 710.7,275.2 714.1,275.2 717.5,275.2 721,275.2 724.4,275.2 727.8,275.2 731.3,275.2 
				734.7,275.2 738.1,275.2 741.5,275.2 745,275.2 748.4,275.2 751.8,275.2 755.3,275.2 758.7,275.2 762.1,275.2 765.6,275.2 
				769,275.2 772.4,275.2 775.8,275.2 779.3,275.2 782.7,275.2 786.1,275.2 789.6,275.2 793,275.2 796.4,275.2 799.8,275.2 
				803.3,275.2 806.7,275.2 810.1,275.2 813.6,275.2 817,275.2 820.4,275.2 823.9,275.2 827.3,275.2 830.7,275.2 834.1,275.2 
				837.6,275.2 841,275.2 844.4,275.2 847.9,275.2 851.3,275.2 854.7,275.2 858.1,275.2 861.6,275.2 865,275.2 868.4,275.2 
				871.9,275.2 875.3,275.2 878.7,275.2 882.1,275.2 885.6,275.2 889,275.2 892.4,275.2 895.9,275.2 899.3,275.2 902.7,275.2 
				906.2,275.2 909.6,275.2 913,275.2 916.4,275.2 919.9,275.2 923.3,275.2 926.7,275.2 930.2,275.2 933.6,275.2 937,275.2 
				940.4,275.2 943.9,275.2 947.3,275.2 950.7,275.2 954.2,275.2 957.6,275.2 961,275.2 964.4,275.2 967.9,275.2 971.3,275.2 
				974.7,275.2 978.2,275.2 981.6,275.2 985,275.2 988.5,275.2 991.9,275.2 995.3,275.2 998.7,275.2 1002.2,275.2 1005.6,275.2 
				1009,275.2 1012.5,275.2 1015.9,275.2 1019.3,275.2 1022.7,275.2 1026.2,275.2 1029.6,275.2 1033,275.2 1036.5,275.2 
				1039.9,275.2 1043.3,275.2 1046.8,275.2 1050.2,275.2 1053.6,275.2 1057,275.2 1060.5,275.2 1063.9,275.2 1067.3,275.2 
				1070.8,275.2 1074.2,275.2 1077.6,275.2 1081,275.2 1084.5,275.2 1087.9,275.2 1091.3,275.2 1094.8,275.2 1098.2,275.2 
				1101.6,275.2 1105,275.2 1108.5,275.2 1111.9,275.2 1115.3,275.2 1111.9,309.1 1108.5,343 1105,376.9 1101.6,410.8 1098.2,444.7 
				1098,446.5 1098,446.5 1094.8,446.5 1091.3,446.5 1087.9,446.5 1084.5,446.5 1081,446.5 1077.6,446.5 1074.2,446.5 1070.8,446.5 
				1067.3,446.5 1063.9,446.5 1060.5,446.5 1057,446.5 1053.6,446.5 1050.2,446.5 1046.8,446.5 1043.3,446.5 1039.9,446.5 
				1036.5,446.5 1033,446.5 1029.6,446.5 1026.2,446.5 1022.7,446.5 1019.3,446.5 1015.9,446.5 1012.5,446.5 1009,446.5 
				1005.6,446.5 1002.2,446.5 998.7,446.5 995.3,446.5 991.9,446.5 988.5,446.5 985,446.5 981.6,446.5 978.2,446.5 974.7,446.5 
				971.3,446.5 967.9,446.5 964.4,446.5 961,446.5 957.6,446.5 954.2,446.5 950.7,446.5 947.3,446.5 943.9,446.5 940.4,446.5 
				937,446.5 933.6,446.5 930.2,446.5 926.7,446.5 923.3,446.5 919.9,446.5 916.4,446.5 913,446.5 909.6,446.5 906.2,446.5 
				902.7,446.5 899.3,446.5 895.9,446.5 892.4,446.5 889,446.5 885.6,446.5 882.1,446.5 878.7,446.5 875.3,446.5 871.9,446.5 
				868.4,446.5 865,446.5 861.6,446.5 858.1,446.5 854.7,446.5 851.3,446.5 847.9,446.5 844.4,446.5 841,446.5 837.6,446.5 
				834.1,446.5 830.7,446.5 827.3,446.5 823.9,446.5 820.4,446.5 817,446.5 813.6,446.5 810.1,446.5 806.7,446.5 803.3,446.5 
				799.8,446.5 796.4,446.5 793,446.5 789.6,446.5 786.1,446.5 782.7,446.5 779.3,446.5 775.8,446.5 772.4,446.5 769,446.5 
				765.6,446.5 762.1,446.5 758.7,446.5 755.3,446.5 751.8,446.5 748.4,446.5 745,446.5 741.5,446.5 738.1,446.5 734.7,446.5 
				731.3,446.5 727.8,446.5 724.4,446.5 721,446.5 717.5,446.5 714.1,446.5 710.7,446.5 707.3,446.5 703.9,446.5 703.8,446.5 
				700.4,446.5 697,446.5 693.5,446.5 690.1,446.5 686.7,446.5 683.3,446.5 680.9,446.5 			"/>
			<polygon id="_337845784" class="st3" points="680.9,625.6 1083.3,625.6 1068.5,795 680.9,794 			"/>
			<polygon id="_337845328" class="st3" points="680.9,1073.4 877.3,1018.3 890.6,791.8 1069,789 1037,1156.9 680.9,1260.9 
				680.9,1260.8 			"/>
		</g>
	</g>
</g>
<rect x="-343.1" y="-256" class="st4" width="2048" height="2048"/>
</svg>
