<?xml version="1.0" encoding="utf-8"?>
<!-- Generator: Adobe Illustrator 22.0.1, SVG Export Plug-In . SVG Version: 6.00 Build 0)  -->
<svg version="1.1" id="Layer_1" xmlns="http://www.w3.org/2000/svg" xmlns:xlink="http://www.w3.org/1999/xlink" x="0px" y="0px"
	 viewBox="0 0 1366 768" style="enable-background:new 0 0 1366 768;" xml:space="preserve">
<style type="text/css">
	.st0{clip-path:url(#SVGID_2_);}
	.st1{fill:#0B6350;}
	.st2{fill-rule:evenodd;clip-rule:evenodd;fill:#F5CAD5;}
	.st3{fill:#EC9CAF;}
	.st4{fill:#FFFFFF;}
	.st5{fill:#E92339;}
	.st6{fill:#07352A;}
	.st7{fill-rule:evenodd;clip-rule:evenodd;}
	.st8{fill:#F5CAD5;}
	.st9{fill:#F375A1;}
	.st10{fill:none;stroke:#E92339;stroke-width:100;stroke-miterlimit:10;}
	.st11{fill-rule:evenodd;clip-rule:evenodd;fill:#E92339;}
	.st12{fill:none;}
	.st13{fill-rule:evenodd;clip-rule:evenodd;fill:none;}
</style>
<g>
	<defs>
		<rect id="SVGID_1_" x="0" y="0" width="1366" height="769"/>
	</defs>
	<clipPath id="SVGID_2_">
		<use xlink:href="#SVGID_1_"  style="overflow:visible;"/>
	</clipPath>
	<g class="st0">
		<rect x="0" y="-1" class="st1" width="1366" height="768"/>
		<g>
			<path class="st2" d="M796.7,166.9c16.9,24.5,33.9,49,50.8,73.4c8.7,12.6,17.5,29.9,8.3,42.2c-11.3,15-37.1,3.7-44.3-13.6
				c-7.2-17.3-3.8-37.1-7.2-55.5c-3.4-18.4-19.6-37.9-37.6-32.5c-15.4,4.6-20.5,25.3-14.9,40.5s18.1,26.4,28.7,38.5
				c8.3,9.4,15.8,20.1,17.9,32.5c2.1,12.3-2.4,26.5-13.4,32.6c-19.2,10.6-42.4-10-47-31.5s1.1-44-2.8-65.6s-25.1-43.5-45.3-35
				c-13.3,5.6-19,22.3-16.6,36.5s10.8,26.6,19.1,38.5c15.7,22.5,31.5,45.1,47.2,67.6c8.3,12,17,26.8,11.2,40.2
				c-7.6,17.5-35.1,16.3-48.4,2.5c-13.2-13.8-16.4-34-20.3-52.7c-2.8-13.2-6.6-27.1-16.4-36.5c-9.7-9.4-27.2-12.1-36.4-2.2
				c-13.5,14.5,0.8,37.4,14.6,51.5c32.8,33.5,65.6,66.9,98.3,100.4c12.9,13.2,26.6,33.2,15.9,48.2c-10.2,14.3-34.3,8.4-45.1-5.4
				s-13.7-32.2-20.9-48.2c-11-24.6-32-43.2-52.3-61c-8.7-7.6-19.4-15.7-30.5-12.9c-13.4,3.4-18.1,21.5-12.8,34.3
				c5.3,12.8,17,21.6,27.7,30.4c37.3,30.9,67.5,70.4,87.6,114.6c-13.7-9.5-27.5-19.1-41.2-28.6c-35.8-24.8-71.5-49.6-107.3-74.4
				c-14.4-10-29.1-20.3-39.1-34.7c-24-34.6-14.3-81.3-3.8-122c13.7-52.8,29.4-109,70.5-144.9c31.5-27.6,76.2-39.4,117.3-31
				c41,8.4,77.5,36.8,95.7,74.5"/>
		</g>
		<g>
			<path class="st3" d="M258.9,590.7c26.2-27,42.9-61.6,60.5-95c17.5-33.3,37.2-66.9,67.4-89.5s73.3-31.7,105.8-12.7
				s43.5,70.9,15,95.5c-12.9,11.1-30.3,14.9-47.1,18c-16.7,3.1-34.2,6.2-47.7,16.5c-13.6,10.2-21.6,30-13.1,44.7
				c7.4,12.6,24.3,16.9,38.6,13.8s26.6-12,38.4-20.6c44.7-32.8,89.4-65.5,134.1-98.3c13.3-9.7,26.9-19.6,42.5-24.7
				s34.1-4.5,47.2,5.4c20.9,15.8,19.8,49.5,4.4,70.7c-15.5,21.1-40.8,32.3-65.4,41.2c-20.4,7.4-41.9,14.3-57.3,29.5
				c-15.4,15.2-22.1,41.8-8.3,58.6c16.8,20.4,49.4,13.2,73.3,2c30.5-14.4,60.6-33,94.4-34.7c33.7-1.7,71.9,22.2,70.3,55.9
				c-1.6,33.7-38.9,53.1-71.5,61.6c-137.9,36-292.4,1-401.4-90.9c-33.4-28.2-62.8-61.4-98.7-86.3"/>
		</g>
		<g>
			<path class="st4" d="M669.3,663.8c31.7-17.6,68.2-24.1,103.4-32.9s71.2-20.6,97.2-46s38.6-67.6,20.3-98.9
				c-13.3-22.8-38.9-34.8-63-45.4c-10.2-4.5-20.5-9.1-30.7-13.6c-9.4-4.2-19.1-8.4-29.4-8.7c-10.3-0.3-21.4,4.4-25.6,13.7
				c-4.8,10.6,0.8,23.6,9.9,30.8c9.1,7.3,20.8,10.1,32.1,12.8c15.4,3.6,31,7.3,44.7,15.3c13.7,7.9,25.3,20.9,27.7,36.5
				c2.4,15.6-6.8,33.3-22.1,37c-15.4,3.7-30.6-6.7-41.4-18.4c-10.7-11.7-20.1-25.5-34.5-32.2c-14.4-6.6-35.9-1-38.3,14.7
				c-1.6,11,6.8,21.1,16.3,26.9s20.5,9.1,29.2,16c8.7,6.9,14.8,19.4,9.5,29.2c-7.6,14.1-28.3,9.8-44.4,9.5
				c-27.4-0.6-54.1,18.7-62.1,45L669.3,663.8z"/>
		</g>
		<g>
			<g>
				<path class="st5" d="M609.4,1090.6c-18.6-50.1-31.5-102.1-38.7-155c0.9,6.6,1.8,13.3,2.7,19.9c-8.5-63.9-8.7-128.7-0.3-192.6
					c-0.9,6.6-1.8,13.3-2.7,19.9c0.6-4.3,1.2-8.5,1.8-12.7c-48.2,0-96.4,0-144.6,0c31.4,95.1,62.9,190.3,94.3,285.4
					c8.9,26.9,17.8,53.7,26.6,80.6c5.8,17.7,17.4,35.8,34.5,44.8c6,2.5,11.9,5,17.9,7.6c10,3.1,19.9,3.6,29.9,1.3
					c6.8,0,13.1-1.7,18.9-5.1c9.3-3,17.3-8.2,24.1-15.5c13.8-15,21.1-32.4,22-53C700.9,1002.2,706,888.1,711,774
					c1.4-32.3,2.9-64.5,4.3-96.8c-49.1,6.6-98.2,13.3-147.3,19.9c27.9,103.9,55.8,207.8,83.7,311.7c7.9,29.5,15.8,59,23.8,88.5
					c2.3,9.8,6.8,18.3,13.4,25.5c5.3,8.2,12.3,14.6,21,19.3c6,2.5,11.9,5,17.9,7.6c10,3.1,19.9,3.6,29.9,1.3
					c6.8,0,13.1-1.7,18.9-5.1c9.3-3,17.3-8.2,24.1-15.5c3.9-5.1,7.8-10.1,11.7-15.2c6.8-11.7,10.2-24.3,10.2-37.9
					c10-94.1,19.9-188.2,29.9-282.2c2.8-26.7,5.7-53.5,8.5-80.2c-49.1,6.6-98.2,13.3-147.3,19.9c25.7,87.4,51.3,174.9,77,262.3
					c7.3,24.9,14.6,49.8,21.9,74.7c2.5,6,5,11.9,7.6,17.9c4.7,8.7,11.2,15.8,19.3,21c4.7,4.6,10.2,7.9,16.5,9.6
					c8.9,4.7,18.6,6.8,28.9,6.5c13.3-0.6,26.1-4,37.9-10.2c8.7-4.7,15.8-11.2,21-19.3c6.6-7.2,11.1-15.7,13.4-25.5
					c18.6-100.1,37.3-200.3,55.9-300.4c5.3-28.4,10.6-56.8,15.8-85.1c-48.2,0-96.4,0-144.6,0c16.3,90.7,32.7,181.4,49,272.1
					c4.6,25.4,9.2,50.9,13.7,76.3c2.3,9.8,6.8,18.3,13.4,25.5c5.3,8.2,12.3,14.6,21,19.3c8.6,5.5,17.9,8.4,27.9,8.9
					c10,2.2,19.9,1.8,29.9-1.3c18.1-5.9,35.7-17.1,44.8-34.5c2.5-6,5-11.9,7.6-17.9c3.6-13.3,3.6-26.6,0-39.9
					c-16.3-90.7-32.7-181.4-49-272.1c-4.6-25.4-9.2-50.9-13.7-76.3c-2.5-6-5-11.9-7.6-17.9c-4.7-8.7-11.2-15.8-19.3-21
					c-4.7-4.6-10.2-7.9-16.5-9.6c-8.9-4.7-18.6-6.8-28.9-6.5c-13.3,0.6-26.1,4-37.9,10.2c-8.7,4.7-15.8,11.2-21,19.3
					c-6.6,7.2-11.1,15.7-13.4,25.5c-18.6,100.1-37.3,200.3-55.9,300.4c-5.3,28.4-10.6,56.8-15.8,85.1c48.2,0,96.4,0,144.6,0
					c-25.7-87.4-51.3-174.9-77-262.3c-7.3-24.9-14.6-49.8-21.9-74.7c-5.1-17.5-18-36.1-34.5-44.8c-6-2.5-11.9-5-17.9-7.6
					c-10-3.1-19.9-3.6-29.9-1.3c-6.8,0-13.1,1.7-18.9,5.1c-9.3,3-17.3,8.2-24.1,15.5c-3.9,5.1-7.8,10.1-11.7,15.2
					c-6.8,11.7-10.2,24.3-10.2,37.9c-10,94.1-19.9,188.2-29.9,282.2c-2.8,26.7-5.7,53.5-8.5,80.2c49.1-6.6,98.2-13.3,147.3-19.9
					c-27.9-103.9-55.8-207.8-83.7-311.7c-7.9-29.5-15.8-59-23.8-88.5c-2.3-9.8-6.8-18.3-13.4-25.5c-5.3-8.2-12.3-14.6-21-19.3
					c-6-2.5-11.9-5-17.9-7.6c-10-3.1-19.9-3.6-29.9-1.3c-6.8,0-13.1,1.7-18.9,5.1c-9.3,3-17.3,8.2-24.1,15.5
					c-13.8,15-21.1,32.4-22,53c-5.1,114.1-10.1,228.2-15.2,342.3c-1.4,32.3-2.9,64.5-4.3,96.8c49.1-6.6,98.2-13.3,147.3-19.9
					c-31.4-95.1-62.9-190.3-94.3-285.4c-8.9-26.9-17.8-53.7-26.6-80.6c-2.5-6-5-11.9-7.6-17.9c-4.7-8.7-11.2-15.8-19.3-21
					c-4.7-4.6-10.2-7.9-16.5-9.6c-8.9-4.7-18.6-6.8-28.9-6.5c-13.3,0.6-26.1,4-37.9,10.2c-8.7,4.7-15.8,11.2-21,19.3
					c-6.6,7.2-11.1,15.7-13.4,25.5c-8.1,53.8-12.5,107.7-10,162.1c2.6,54,10.2,108.3,23.3,160.8c6.5,26.2,14.5,52,23.9,77.3
					c2.3,9.8,6.8,18.3,13.4,25.5c5.3,8.2,12.3,14.6,21,19.3c8.6,5.5,17.9,8.4,27.9,8.9c10,2.2,19.9,1.8,29.9-1.3
					c18.1-5.9,35.7-17.1,44.8-34.5C610.8,1131.5,616.3,1109.4,609.4,1090.6L609.4,1090.6z"/>
			</g>
		</g>
		<g>
			<path class="st6" d="M953.5,234.6c-5.9,5.4-11,11.5-14.2,19.2c-5.5,13-11.1,25.9-17.8,38.4c-12.8,23.9-29.5,46.4-53,60.6
				c-19.1,11.5-42,17.2-58.1,32.6c-15.1,14.4-22.3,35.5-36.7,50.6c-12.4,13-29.3,20.6-43.1,32c-20,16.4-33.3,40.8-36.2,66.5
				c-0.7,6-0.8,12.4,2.2,17.6c3,5.2,9.9,8.7,15.3,5.9c5.5-2.8,6.7-10,8.3-15.9c4.6-17.1,18.8-31.4,36-36c25.3-6.8,58,4.2,74.5-16.1
				c12.3-15.1,8.7-42,26.2-50.8c10.6-5.3,24.5-0.6,34.7-6.7c8.2-4.8,11.3-14.8,15.3-23.4c4-8.6,11.4-17.6,20.8-16.5
				c11.2,1.2,15.8,15.5,14.1,26.6c-4.3,27.8-29.6,47.4-39.9,73.7c-8.2,20.9-6.7,46.1-21,63.4c-14.3,17.3-39.2,20.7-58,32.9
				c-15.7,10.2-26.5,26.2-36.9,41.7c-15.6,23.3-31.2,46.6-46.7,69.9c-7.5,11.3-15.4,24.1-13.1,37.4c4,22.8,36.6,29.7,56.1,17.2
				s28.3-36,35.4-58s14.7-45.6,33-59.8c27.7-21.6,72.3-15.4,94.7-42.5c17.8-21.5,15.1-57.9,38.9-72.5c13.6-8.3,30.9-5.9,46.8-7.5
				c27.4-2.8,53.1-19.3,67-43.1c11.7-20,15.4-44.4,30.3-62.1c12.7-15.1,31.6-23.2,47-35.5c39.2-31.3,51-85,77.9-127.3
				c15.6-24.4,36.3-45.1,52.2-69.3c15.9-24.2,26.8-54,19.2-82c-24.4,1.6-42,23.6-54.5,44.6s-25.3,44.6-48.1,53.6
				c-15.3,6-33.2,4.4-47.4,12.5c-20.3,11.6-26,38.5-42.5,55c-26.5,26.6-76.2,22.7-96.8,54.2c5.1-32.2,26.7-59.1,47.5-84.2
				c21.5-26,43-52,64.6-78c12.6-15.2,25.5-30.9,31.4-49.8s3.2-41.8-11.7-54.7c-2-1.8-4.4-3.3-7-3.7c-3.8-0.5-7.4,1.7-10.4,4.1
				c-15.8,12.8-21.8,33.6-29.6,52.3c-7.8,18.7-20.7,38.4-40.8,41.4c-9.6,1.5-19.7-1.2-28.9,1.9c-12,4-18.7,16.4-25.7,27
				c-9.6,14.6-22.4,26.5-36.2,37.2C977.1,218.1,963.9,225.1,953.5,234.6z"/>
		</g>
		<path class="st7" d="M894.3,130.8C954,85.1,981,17.8,920.4-1.7c-21.4-6.9-48,0.2-69.6-6.3c-19.9-6-33.4-21.8-44.7-37.5
			c-22.9-31.8-34.1-80-89.9-53.9c-38,17.7-31.9,70.6-70.6,84.8c-12.1,4.4-25.9,1-37.5-1.8c-28.7-6.8-51.8-10.6-83.6-7.9
			c-59.5,4.9-80,17.1-99.6,44.8c-21.2,30-21.8,84.8,12.9,104.7c41.6,23.9,73-4.1,119.1,22.6c39,22.5,14.7,55.7-2.2,87
			c-31.8,59.1,3.4,103.4,68.4,103.6c21.2,0.1,64-4.6,81.3-22.5c14-14.4,10-40,14.3-56.9c14.9-59.4,67.4-16.1,101.7,1.7
			c32.8,17,91.6,40.1,130.8-10.2c13.4-17.3,3.9-62.4-12.1-71.8C916.7,165.3,871.2,148.5,894.3,130.8z"/>
		<g>
			<g>
				<path class="st4" d="M843.4-58.4c138.4,69.6,270.5,151.8,394,245.2c36.2-20.8,61.9-59.1,67.3-100.5c1.8-13.9,1.3-28.7-4.9-41.3
					s-19.2-22.5-33.3-21.9c-8.3,0.3-16.1,4.2-23.3,8.3c-17.8,10.3-34.1,23.2-48.2,38.2c14.7-18.6,29.9-38.1,34.8-61.4
					c4.9-23.2-3.8-51.2-25.7-60.4c-11.8-5-25.3-3.8-37.7-0.7c-36.2,9-68.2,34.1-85.4,67.2c5.1-33.1,33.3-67.3,15.8-95.7
					c-11.7-18.9-39.3-22.3-59.7-13.4c-20.4,8.9-35.2,26.8-49.3,44.1c13-15.9,26.4-32.6,31.3-52.6s-1.4-44.3-19.7-53.7
					c-26.3-13.5-55.8,9.6-76.3,30.9c5-34.5-14.6-75.1-49-80.2c-29.2-4.4-56.3,17.8-71.9,42.9s-24.3,54.2-41.6,78.2
					c33.3,9.1,65.2,22.9,94.5,41.1L843.4-58.4z"/>
			</g>
			<g>
				<path class="st4" d="M1199.5,104.1c-138.4-69.6-270.5-151.8-394-245.2c-36.2,20.8-61.9,59.1-67.3,100.5
					c-1.8,13.9-1.3,28.7,4.9,41.3s19.2,22.5,33.3,21.9c8.3-0.3,16.1-4.2,23.3-8.3C817.5,4,833.8-9,847.9-24
					C833.2-5.3,818,14.2,813.1,37.4c-4.9,23.2,3.8,51.2,25.7,60.4c11.8,5,25.3,3.8,37.7,0.7c36.2-9,68.2-34.1,85.4-67.2
					c-5.1,33.1-33.3,67.3-15.8,95.7c11.7,18.9,39.3,22.3,59.7,13.4c20.4-8.9,35.2-26.8,49.3-44.1c-13,15.9-26.4,32.6-31.3,52.6
					c-4.9,20,1.4,44.3,19.7,53.7c26.3,13.5,55.8-9.6,76.3-30.9c-5,34.5,14.6,75.1,49,80.2c29.2,4.4,56.3-17.8,71.9-42.9
					s24.3-54.2,41.6-78.2c-33.3-9.1-65.2-22.9-94.5-41.1L1199.5,104.1z"/>
			</g>
		</g>
		<g>
			<path class="st8" d="M1501.5,16c-44.3,130-94.5,258.1-150.2,383.7c-3.7,8.3-7.8,17-15.5,21.8c-18.4,11.4-42.7-10-43.1-31.6
				c-0.4-21.6,13.7-40.4,26.3-58c12.6-17.6,24.8-38.4,20.3-59.5c-2.4-11.1-9.2-20.8-11.2-32c-6.2-35.2,36.8-63.6,34.1-99.2
				c-1.6-21-19.2-39.8-15.4-60.5c4.2-23.7,35-39.2,31.7-63c-2.7-20-30.2-28.2-48-18.7s-26.8,29.9-32,49.3
				c-6.5,23.9-9.2,48.8-8.1,73.5c1.2,25.9,5.5,55.3-11.6,74.9c-9.7,11.1-24.7,16.6-33.9,28.1c-25.2,31.2,5.8,84.4-19.6,115.5
				c-13,16-37.6,20.4-47.7,38.4c-8.5,15-4.5,35.9-16.4,48.5c-16.3,17.2-48.4,0.4-52.9-22.9s8.6-46.1,22.3-65.4s29.1-39.6,30.1-63.3
				c0.8-19.3-8.4-38.5-5.1-57.5c5.8-33.5,46.3-50.4,58.2-82.3c13.4-36.2-14.3-78.5,0.5-114.1c7.2-17.5,23.5-29.8,31.8-46.8
				s1.8-44.2-17.2-44.2c-7.2,0-13.6,4.1-19.4,8.3c-48.9,35.9-80.2,94.9-82.6,155.5c-1.2,31.8,3.3,68.6-19.4,90.8
				c-7.2,7-16.7,11.9-22.2,20.3c-6.4,9.7-6.3,22.2-7.4,33.8c-3.3,35.6-20.5,69.7-47.1,93.6c-6.9,6.1-15.3,11.9-24.5,10.9
				c-13.5-1.6-20.9-17.6-19-31.1s10.2-24.9,16.9-36.6c13.8-24.2,21.7-51.9,22.6-79.7c0.5-13.4-0.6-27,2.8-39.9
				c4.9-18.5,18.4-33.3,28.4-49.7c53.6-88.7,0-218.9,66.6-298.3c23.6-28.1,58.3-44,92.4-57.4c48.5-19.1,99.4-35.2,151.5-34.2
				c52.1,1,106.1,21.7,136.5,64c26,36.1,31.9,83.8,24.6,127.7c-7.3,43.9-26.7,84.8-47.7,124"/>
		</g>
		<g>
			<g>
				<path d="M34.5,492.5c138.4,69.6,270.5,151.8,394,245.2c36.2-20.8,61.9-59.1,67.3-100.5c1.8-13.9,1.3-28.7-4.9-41.3
					c-6.2-12.6-19.2-22.5-33.3-21.9c-8.3,0.3-16.1,4.2-23.3,8.3c-17.8,10.3-34.1,23.2-48.2,38.2c14.7-18.6,29.9-38.1,34.8-61.4
					c4.9-23.2-3.8-51.2-25.7-60.4c-11.8-5-25.3-3.8-37.7-0.7c-36.2,9-68.2,34.1-85.4,67.2c5.1-33.1,33.3-67.3,15.8-95.7
					c-11.7-18.9-39.3-22.3-59.7-13.4s-35.2,26.8-49.3,44.1c13-15.9,26.4-32.6,31.3-52.6c4.9-20-1.4-44.3-19.7-53.7
					c-26.3-13.5-55.8,9.6-76.3,30.9c5-34.5-14.6-75.1-49-80.2c-29.2-4.4-56.3,17.8-71.9,42.9s-24.3,54.2-41.6,78.2
					c33.3,9.1,65.2,22.9,94.5,41.1L34.5,492.5z"/>
			</g>
			<g>
				<path d="M390.6,655c-138.4-69.6-270.5-151.8-394-245.2c-36.2,20.8-61.9,59.1-67.3,100.5c-1.8,13.9-1.3,28.7,4.9,41.3
					c6.2,12.6,19.2,22.5,33.3,21.9c8.3-0.3,16.1-4.2,23.3-8.3c17.8-10.3,34.1-23.2,48.2-38.2c-14.7,18.6-29.9,38.1-34.8,61.4
					s3.8,51.2,25.7,60.4c11.8,5,25.3,3.8,37.7,0.7c36.2-9,68.2-34.1,85.4-67.2c-5.1,33.1-33.3,67.3-15.8,95.7
					c11.7,18.9,39.3,22.3,59.7,13.4s35.2-26.8,49.3-44.1c-13,15.9-26.4,32.6-31.3,52.6s1.4,44.3,19.7,53.7
					c26.3,13.5,55.8-9.6,76.3-30.9c-5,34.5,14.6,75.1,49,80.2c29.2,4.4,56.3-17.8,71.9-42.9c15.6-25.1,24.3-54.2,41.6-78.2
					c-33.3-9.1-65.2-22.9-94.5-41.1L390.6,655z"/>
			</g>
		</g>
		<circle class="st5" cx="333.8" cy="212" r="192.5"/>
		<circle class="st5" cx="1243.1" cy="550.9" r="192.5"/>
		<path d="M1400.5-9.5c-5,0-9.5-2.8-13.9-5.3c-15.4-8.5-33-12.9-50.5-12.7c-13.7,0.2-28.6,3.9-36.6,15.1s-3.5,30.6,10,33
			c14.4,2.5,28.5-14.5,41.8-8.5c11.3,5.2,9.5,23.4-0.3,31.1s-23.3,7.9-35.7,8.2c-18,0.5-36,1.9-53.9,4.3
			c-15.7,2.1-32.5,5.5-43.2,17.2s-10.6,34,3.9,40.4c10,4.5,21.5-0.3,32-3.6c10.5-3.3,24.1-4.2,30.3,4.9c5.6,8.2,1,20.2-7.1,26
			s-18.5,6.9-28.4,7.9c-21.3,2.1-42.5,4.3-63.8,6.4c-14.5,1.5-29.3,3-42.7,8.8c-13.4,5.9-25.3,16.9-28.5,31.1c-1,4.4-1.1,9,0.7,13.1
			c5.7,13.4,24.8,12.3,38.9,8.9c14.1-3.4,33.1-4.9,39.2,8.3c4.1,8.9-1.2,20-9.3,25.6c-8.1,5.6-18.3,7.1-28,8.7
			c-26.4,4.2-53.4,9.7-76,24c-22.6,14.4-40.1,39.6-38.2,66.3c2.3,32.9,34.7,58.5,67.6,59.9c32.9,1.4,64.3-17.2,85.5-42.4
			s33.7-56.6,44.2-87.8c2.3-6.9,6.4-15.2,13.7-15c6.2,0.2,10.3,7.1,10,13.3c-0.3,6.2-3.6,11.7-6.4,17.2c-5,10-8.5,20.7-10.4,31.7
			c-1.4,8.1-1.1,18,5.8,22.5c9.9,6.5,22.1-4.4,28.2-14.5c20.6-34.2,30.9-74.4,29.5-114.2c-0.3-9.3,0.3-21.1,9-24.2
			c11-3.9,19.2,11.5,17.7,23s-6.9,23.9-1.5,34.2c6.9,13.1,27.6,12.4,38.1,2c10.5-10.4,13.2-26.2,14.5-41
			c2.4-27.2-0.3-58.9-22.3-75.1c-5.6-4.1-12.7-7.8-14.3-14.5c-2.7-11.6,15.1-18.7,24.9-12s12.6,19.7,14.7,31.4s5.1,24.7,15.1,31.2
			c10.1,6.6,24.5,3.5,33.3-4.8c8.8-8.3,12.8-20.6,14.1-32.6c2.3-21.3-6-46.5-26.5-52.9c-6.5-2-13.9-2-19.5-5.9
			c-10.5-7.4-8-24.5,0.6-34s21.1-14.4,31.6-21.7c21.1-14.8,33.1-39,44.2-62.2c8-16.6,18.6-40.8,3.8-57.1
			c-10.1-11.2-28.3-12-38.2-0.1C1432.6-77.4,1437.6-9.4,1400.5-9.5z"/>
		<g>
			<path class="st4" d="M63.2,625.6c42-17.7,83.1-37.3,123.3-58.7c21.1-11.2,43.2-24.4,52.9-46.3c9.7-21.8-1.1-53.8-24.9-56.1
				c-18-1.8-41.9,10.9-50.8-4.8c-6.7-11.9,5.5-25.3,16.6-33.2c35.3-25.1,72.9-47,112.2-65.2c20.3-9.4,42.4-19.1,53.4-38.5
				s1.8-51-20.5-51.9c-14-0.6-25.5,10.5-38.3,16.3c-12.8,5.8-33.4,1-32.4-13c0.5-6.4,5.5-11.3,10.4-15.4
				c45.9-39.1,102.2-63.3,153.1-95.6s98.9-76.9,112.1-135.7c2.8-12.7,3.7-26.8-3.2-37.7c-10.7-16.9-34.6-18.7-54.3-15.8
				c-65.6,9.5-122.4,48.6-181.1,79.3C184.9,108.8,66.4,138.3-42.5,189.5c-35.3,16.6-70.8,36.5-93.2,68.4
				c-27.5,39-31.2,90.9-20.5,137.3c10.7,46.5,34.4,88.8,58.4,129.9c20.7,35.3,42.7,71.3,75.6,95.7c32.9,24.4,79.4,34.9,115.2,14.9
				L63.2,625.6z"/>
		</g>
		<g>
			<path class="st6" d="M-328.8-200.7C-469-54.4-539.1,20.5-538.3,104.5c1.2,132,118.1,253.3,233.1,298.9
				c21.8,8.6,17.7,27.2,82.3,22c83.7-6.7,205-26.2,256.2-98.9c17.1-24.2,29.2-49.3,41.5-71.3c-7.8-3.1-15.8-9.5-25-22.5
				C-8.6,202.3-57,134.3-76.5,71.3c-3-9.9-4.9-20.5-2.5-30.5c6.3-26.2,39.8-37.7,65.8-30.5s46.1,27.3,65.6,46
				c19.5,18.7,41.3,37.5,68,41.3c10.5,1.5,23.7-1.1,27.3-11.1c1.2-3.2,1.1-6.6,0.7-10c-4.6-37.1-54-57.9-54.4-95.3
				c-0.3-28.9,32.5-49.6,61.2-46c28.7,3.6,52.2,24.4,70.6,46.7C244.2,4.5,259.7,29.7,282,48c7.8,6.4,20.7,11.5,26.9,3.5
				c3.2-4,3-9.7,2.2-14.8c-5.3-34.8-28.4-65-33-99.9c-1.1-8.4-1-17.4,2.9-24.9c8.5-16.4,31.4-19.6,49.2-14.4
				c29.9,8.6,52.3,33.1,71.8,57.5c27,33.7,51.6,69.3,73.6,106.5c11.6,19.6,22.7,40.6,29.2,62.3c64.6-38.6,186.9,80.1,230.2,49.9
				c67.5-47.1-26.9-477.5-340.7-635.8C353-483.1,238.2-539.1,97-518.3C-41.7-497.9-139.3-398.6-328.8-200.7z"/>
			<g>
				<path class="st9" d="M402-45.1c-19.4-24.3-41.8-48.8-71.8-57.5c-17.8-5.1-40.6-2-49.2,14.4c-3.9,7.6-4,16.5-2.9,24.9
					c4.6,34.9,27.7,65.1,33,99.9c0.8,5.1,1,10.8-2.2,14.8c-6.3,7.9-19.1,2.9-26.9-3.5c-22.3-18.4-37.8-43.6-56.2-65.9
					C207.5-40.2,184-61,155.3-64.6c-28.7-3.6-61.5,17-61.2,46c0.4,37.3,49.8,58.2,54.4,95.3c0.4,3.3,0.4,6.8-0.7,10
					c-3.6,10-16.8,12.6-27.3,11.1c-26.7-3.8-48.5-22.7-68-41.3c-19.5-18.7-39.6-38.7-65.6-46s-59.4,4.2-65.8,30.5
					c-2.4,10-0.6,20.6,2.5,30.5c19.5,63,67.8,131,126.3,161.5c9.3,12.9,17.2,19.3,25,22.5c12.6-22.5,25.4-41.7,43.9-53.3
					c10-6.3,36.1-20.3,144.7-8.7c118.2,12.7,156.9,36.8,191.7,10.9c31.2-23.3,16.6-55.1,44-76.7c1.8-1.4,3.6-2.7,5.5-3.8
					c-6.5-21.7-17.6-42.7-29.2-62.3C453.5,24.2,428.9-11.3,402-45.1z"/>
			</g>
		</g>
		<path class="st10" d="M877.6-48.1"/>
		<g>
			<g>
				<g>
					<path class="st9" d="M1076.7,343.9c53.9,2.8,99.5-34.7,129.5-76c34.4-47.3,55.8-103.5,97-145.8c21.2-21.7,47-39.1,77.1-45.1
						c1.9-0.4,1.1-3.3-0.8-2.9c-51.8,10.4-89.2,52.3-116.3,95c-31.1,49-54.8,105.2-101.6,141.8c-24.2,18.9-53.7,31.6-84.8,30
						C1074.7,340.8,1074.7,343.8,1076.7,343.9L1076.7,343.9z"/>
				</g>
			</g>
			<g>
				<g>
					<path class="st9" d="M1250.3,189.6c-36.2-4.2-74.3-8-108.7,7.1c-1.8,0.8-0.2,3.4,1.5,2.6c33.8-14.8,71.6-10.7,107.2-6.6
						C1252.2,192.9,1252.2,189.9,1250.3,189.6L1250.3,189.6z"/>
				</g>
			</g>
			<g>
				<g>
					<path class="st9" d="M1256,181.2c2.1,36.1,20.1,71,13.8,107.4c-0.3,1.9,2.6,2.7,2.9,0.8c6.4-36.9-11.6-71.8-13.7-108.2
						C1258.9,179.2,1255.9,179.2,1256,181.2L1256,181.2z"/>
				</g>
			</g>
			<g>
				<g>
					<path class="st9" d="M1302.6,121.2c25.6,18,33.2,49.9,38.2,79c0.3,1.9,3.2,1.1,2.9-0.8c-5.1-30-13.2-62.3-39.5-80.8
						C1302.5,117.5,1301,120.1,1302.6,121.2L1302.6,121.2z"/>
				</g>
			</g>
			<g>
				<g>
					<path class="st9" d="M1344.9,84.7c-8.3-6.7-18.4-10.1-29.1-9.6c-1.9,0.1-1.9,3.1,0,3c9.9-0.5,19.3,2.5,27,8.7
						C1344.3,88,1346.4,85.9,1344.9,84.7L1344.9,84.7z"/>
				</g>
			</g>
			<g>
				<g>
					<path class="st9" d="M1151.9,318.5c-0.7,8.4-0.9,17.1-3.1,25.3c-2.3,8.4-7.5,15.3-13,21.8c-1.2,1.5,0.9,3.6,2.1,2.1
						c5.7-6.6,11-13.7,13.5-22.2c2.6-8.7,2.8-18.1,3.5-27.1C1155,316.6,1152,316.6,1151.9,318.5L1151.9,318.5z"/>
				</g>
			</g>
		</g>
		<g>
			<path class="st4" d="M1394.5,483.9c-45.3-4.3-90.9-6.5-136.4-6.7c-23.9-0.1-49.6,1-68.5,15.7c-18.9,14.6-24.5,47.9-4.6,61.2
				c15,10.1,42.1,10.2,42.4,28.3c0.3,13.6-16.8,19.7-30.3,21.4c-43,5.4-86.4,6.9-129.6,4.3c-22.3-1.3-46.4-3.3-65.3,8.6
				c-18.9,11.9-25.7,44.1-6.5,55.5c12.1,7.2,27.4,2.8,41.4,3.7c14,1,29.9,15,22.3,26.8c-3.4,5.4-10.2,7.3-16.5,8.7
				c-58.9,12.7-120,7.4-180.1,11.8s-123.6,20.9-163,66.5c-8.5,9.8-16,21.8-15,34.8c1.5,19.9,21.6,32.8,40.4,39.6
				c62.3,22.7,130.8,15.1,197.1,15.9c120.4,1.5,238.7,31.6,358.9,38.1c38.9,2.1,79.6,1.3,114.5-16.1c42.6-21.3,70.5-65.2,83.1-111.2
				c12.6-46,11.7-94.5,10-142.1c-1.5-40.9-3.8-83-21.2-120.1c-17.4-37.1-53.5-68.3-94.4-67.7L1394.5,483.9z"/>
		</g>
		<g>
			<path class="st4" d="M1221.5,838.8l-4.6,2c0,0-16-18.3-23.5-13.7c-8.8-1.1-192.8-211.1,15.2-15.2c0,0-2.8,7.5,0.5,12.9
				C1212.2,830.1,1221.5,838.8,1221.5,838.8L1221.5,838.8z"/>
			<path class="st5" d="M1221.5,838.8l-4.6,2c0,0-16-18.3-23.5-13.7c-8.8-1.1-192.8-211.1,15.2-15.2c0,0-2.8,7.5,0.5,12.9
				C1212.2,830.1,1221.5,838.8,1221.5,838.8L1221.5,838.8z"/>
			<path class="st6" d="M1207.5,819.9c0,0,11.7-48-34-83.5c-34.9-24.3-60.2-19.5-65.5-21.7c-4.5-0.9-10.7-4-10.7-4l79.4,83.8
				C1176.7,794.5,1197.9,822.8,1207.5,819.9"/>
			<path class="st1" d="M1200.4,827.7c0,0-46.5,6.4-76.6-29.8c-30.3-36.2-25.8-71.6-24.8-78.2c0-5.1-0.8-6.2-3.2-9.1
				c5.3,2.2,54.4,56.3,60.4,62.4C1179.4,796.7,1198.1,821.3,1200.4,827.7z"/>
		</g>
		<g>
			<path class="st4" d="M837.2,1002.9l4.9-0.5c0,0,9.4,22.1,17.9,20.2c7.9,3.7,116.3,258-19,9.7c0,0,4.9-6.2,3.5-12.2
				C843.2,1014.1,837.2,1002.9,837.2,1002.9L837.2,1002.9z"/>
			<path class="st5" d="M837.2,1002.9l4.9-0.5c0,0,9.4,22.1,17.9,20.2c7.9,3.7,116.3,258-19,9.7c0,0,4.9-6.2,3.5-12.2
				C843.2,1014.1,837.2,1002.9,837.2,1002.9L837.2,1002.9z"/>
			<path class="st6" d="M844.5,1025.1c0,0-25.8,41.5,6.2,89c25.3,33.6,50.6,36.9,54.9,40.6c3.9,2.3,8.8,7.1,8.8,7.1l-48.8-103.3
				C865.7,1058.5,854.4,1025.3,844.5,1025.1"/>
			<path class="st1" d="M853.6,1019.9c0,0,45.7,8.3,62.9,51.6c17.3,43.3,2.2,75.3-0.8,81.2c-1.6,4.8-1.1,6.1,0.2,9.5
				c-4.3-3.7-33.8-69.7-37.6-77.3C863.8,1055.6,853.8,1026.6,853.6,1019.9z"/>
		</g>
		<path class="st5" d="M319.3,1111.8c-0.6,0.7-1.4,1.2-2.3,1.5c-3.1,1.1-7.9,0.4-13.3-1.9c-2.7,5.3-5.9,8.9-9,10
			c-0.9,0.3-1.9,0.4-2.7,0.3c-3.8-0.7-6.6-6-7.5-13.7c-7.7,0.4-13.5-1.4-14.8-5c-1.3-3.6,2-8.7,8.1-13.3c-4.2-6.5-5.5-12.4-3.1-15.3
			c0.6-0.7,1.4-1.2,2.3-1.5l0,0c3.1-1.1,7.9-0.4,13.3,1.9c2.7-5.3,5.9-8.9,9-10l0,0c0.9-0.3,1.8-0.4,2.7-0.3c3.8,0.7,6.6,6,7.5,13.7
			c7.7-0.4,13.5,1.4,14.8,5c1.3,3.6-2,8.7-8.1,13.3C320.4,1102.9,321.8,1108.8,319.3,1111.8z"/>
		<g>
			<g>
				<path d="M1032.2-115.2c1.9,0,1.9-3,0-3C1030.2-118.2,1030.2-115.2,1032.2-115.2L1032.2-115.2z"/>
			</g>
		</g>
		<path class="st11" d="M170.3,596.2c21.2-62.2,8-124.3-45.5-109c-18.9,5.4-34.8,23.5-53.7,29.2c-17.4,5.3-34.8,0.4-50.7-5.5
			c-32.1-11.9-63.7-41.5-91.6,4.5c-19,31.4,11.1,66.8-10.1,96c-6.6,9.1-18.4,13.3-28.1,16.9c-24.1,9-42.8,17.5-64.6,34.9
			c-40.8,32.5-49.8,51.4-50.6,81c-0.8,32.1,25.4,72.2,60.3,69.8c41.8-2.9,51-38.4,97.5-41.5c39.2-2.6,37.7,33.3,40.7,64.3
			c5.7,58.4,52.7,73.5,100.1,42c15.4-10.3,44.2-34.5,48.1-55.8c3.1-17.2-12.2-34-17.3-48.3c-18.1-50.4,41.2-44.4,74.7-48.2
			c32.1-3.6,86.1-15.4,90.1-71c1.4-19.1-27.5-47.2-43.7-46.3C203.4,610.4,162.2,620.2,170.3,596.2z"/>
		<g>
			<path class="st6" d="M25.8,910.8c37.9-116.2,81-230.7,129.1-343.1c3.2-7.4,6.7-15.3,13.5-19.6c16.2-10.3,38.1,8.4,38.7,27.6
				c0.6,19.2-11.7,36.1-22.7,51.9c-11,15.8-21.6,34.5-17.3,53.2c2.3,9.8,8.5,18.4,10.3,28.3c5.9,31.2-32,57-29.2,88.7
				c1.7,18.7,17.5,35.2,14.5,53.6c-3.5,21.1-30.7,35.3-27.5,56.5c2.6,17.8,27.2,24.8,42.9,16s23.5-26.9,27.9-44.3
				c5.5-21.3,7.6-43.5,6.3-65.5c-1.3-23.1-5.5-49.1,9.4-66.7c8.5-10,21.8-15.1,29.9-25.4c22-28.1-6.1-75.1,16.1-103
				c11.4-14.3,33.2-18.6,42-34.7c7.4-13.5,3.6-32,14-43.3c14.3-15.5,43.1-0.9,47.4,19.8c4.3,20.7-7.1,41.1-19.1,58.5
				s-25.5,35.6-26,56.7c-0.5,17.2,8,34.1,5.2,51.1c-4.8,29.9-40.6,45.4-50.8,73.9c-11.5,32.3,13.6,69.7,0.9,101.5
				c-6.2,15.6-20.6,26.8-27.8,42c-7.2,15.2-1,39.3,15.8,39.1c6.4-0.1,12.1-3.8,17.2-7.6c43.1-32.6,70.3-85.3,71.7-139.4
				c0.7-28.3-3.8-61,16.2-81.1c6.3-6.4,14.7-10.8,19.5-18.3c5.6-8.7,5.3-19.8,6.2-30.1c2.5-31.7,17.4-62.3,40.8-83.8
				c6-5.5,13.5-10.8,21.6-9.9c12,1.2,18.8,15.5,17.3,27.4c-1.6,12-8.8,22.2-14.6,32.8c-12,21.7-18.7,46.4-19.2,71.2
				c-0.2,11.9,0.9,24-2,35.5c-4.2,16.5-16,29.8-24.6,44.5c-46.7,79.5,2.6,194.7-55.8,266.2c-20.6,25.3-51.4,39.8-81.6,52.1
				c-42.9,17.6-88,32.5-134.4,32.2s-94.7-18.1-122.2-55.3c-23.5-31.8-29.4-74.2-23.4-113.3s22.7-75.8,41-110.9"/>
		</g>
		<rect x="641" y="1082.6" class="st12" width="253.9" height="253.9"/>
		<rect x="0" y="-1" class="st13" width="1366" height="769"/>
		<g>
			<g>
				<g>
					<rect x="-21.2" y="-161.4" class="st12" width="144.7" height="145.5"/>
					<rect x="-6.5" y="-148" class="st12" width="116.8" height="116.8"/>
					<g>
						<g>
							<path class="st4" d="M17.5-130.3c-2.3,4.1-5.5,7.7-9.3,10.4c-1.7,1.2-2.5,3.4-1.4,5.3c1,1.7,3.6,2.6,5.3,1.4
								c4.9-3.6,9-8,12.1-13.2C26.8-130.7,20-134.6,17.5-130.3L17.5-130.3z"/>
						</g>
					</g>
					<g>
						<g>
							<path class="st4" d="M30.1-103.9c2.7,5.6,6.3,10.7,10.5,15.4c1.4,1.6,4.1,1.4,5.5,0c1.6-1.6,1.4-4,0-5.5
								c-3.7-4.1-6.8-8.8-9.3-13.8c-0.9-1.9-3.6-2.4-5.3-1.4C29.5-108.1,29.1-105.8,30.1-103.9L30.1-103.9z"/>
						</g>
					</g>
					<g>
						<g>
							<path class="st4" d="M15.8-88.2c-1.8,3.2-4.4,5.5-7.7,7.2c-1.9,0.9-2.4,3.6-1.4,5.3c1.1,1.9,3.4,2.3,5.3,1.4
								c4.4-2.2,8.1-5.7,10.5-10C25-88.6,18.2-92.6,15.8-88.2L15.8-88.2z"/>
						</g>
					</g>
					<g>
						<g>
							<path class="st4" d="M60.7-108.7c5.2-3.2,9.5-7.9,12-13.5c0.9-1.9,0.6-4.2-1.4-5.3c-1.7-1-4.5-0.5-5.3,1.4
								c-2,4.5-5,8.1-9.2,10.7C52.5-112.8,56.4-106,60.7-108.7L60.7-108.7z"/>
						</g>
					</g>
					<g>
						<g>
							<path class="st4" d="M56.1-135.3c-0.9-4.2-3.5-7.6-7-10c-1.7-1.2-4.3-0.3-5.3,1.4c-1.1,1.9-0.4,4.2,1.4,5.3
								c1.8,1.2,2.9,3.1,3.4,5.3c0.5,2.1,2.8,3.3,4.8,2.7C55.5-131.1,56.5-133.2,56.1-135.3L56.1-135.3z"/>
						</g>
					</g>
					<g>
						<g>
							<path class="st4" d="M71.1-101c0.7,1,1.3,2,2,2.9c0.6,0.8,1.3,1.5,2.3,1.8c0.9,0.3,2.2,0.1,3-0.4c1.7-1.1,2.6-3.5,1.4-5.3
								c-0.7-1-1.3-2-2-2.9c-0.6-0.8-1.3-1.5-2.3-1.8c-0.9-0.3-2.2-0.1-3,0.4C70.9-105.2,69.9-102.8,71.1-101L71.1-101z"/>
						</g>
					</g>
					<g>
						<g>
							<path class="st4" d="M58.8-82c-4.4,3.1-8.9,6.2-13.3,9.3c-1.7,1.2-2.5,3.4-1.4,5.3c1,1.7,3.6,2.6,5.3,1.4
								c4.4-3.1,8.9-6.2,13.3-9.3c1.7-1.2,2.5-3.4,1.4-5.3C63.2-82.3,60.5-83.3,58.8-82L58.8-82z"/>
						</g>
					</g>
					<g>
						<g>
							<path class="st4" d="M24.6-62.2c2.6,4,5.6,7.6,9,10.9c3.6,3.5,9.2-2.1,5.5-5.5c-3-2.8-5.5-5.9-7.8-9.3
								c-1.1-1.8-3.5-2.5-5.3-1.4C24.3-66.5,23.5-63.9,24.6-62.2L24.6-62.2z"/>
						</g>
					</g>
					<g>
						<g>
							<path class="st4" d="M13.9-56.7c-3.6,2-7.2,3.9-10.7,5.9c-4.4,2.4-0.5,9.2,3.9,6.7c3.6-2,7.2-3.9,10.7-5.9
								C22.3-52.3,18.3-59.1,13.9-56.7L13.9-56.7z"/>
						</g>
					</g>
					<g>
						<g>
							<path class="st4" d="M5.1-102.5c-3.6-1.5-6.8-3.8-9.5-6.5c-3.6-3.6-9.1,2-5.5,5.5C-6.1-99.8-1.8-97,3.1-95
								c1.9,0.8,4.3-0.9,4.8-2.7C8.5-100,7.1-101.7,5.1-102.5L5.1-102.5z"/>
						</g>
					</g>
					<g>
						<g>
							<path class="st4" d="M61.6-50.4c2.7,4.7,5.4,9.4,8.1,14.1c2.5,4.4,9.3,0.4,6.7-3.9c-2.7-4.7-5.4-9.4-8.1-14.1
								C65.9-58.7,59.1-54.7,61.6-50.4L61.6-50.4z"/>
						</g>
					</g>
					<g>
						<g>
							<path class="st4" d="M93-60.7c5.9-3.8,11.8-7.6,17.8-11.4c1.8-1.1,2.5-3.5,1.4-5.3c-1-1.8-3.6-2.5-5.3-1.4
								c-5.9,3.8-11.8,7.6-17.8,11.4c-1.8,1.1-2.5,3.5-1.4,5.3C88.6-60.4,91.2-59.6,93-60.7L93-60.7z"/>
						</g>
					</g>
					<g>
						<g>
							<path class="st4" d="M84.1-81.4c4.7-2.7,9.1-6,13-9.7c3.6-3.5-1.9-9-5.5-5.5c-3.5,3.3-7.3,6.1-11.4,8.5
								C75.8-85.6,79.8-78.9,84.1-81.4L84.1-81.4z"/>
						</g>
					</g>
					<g>
						<g>
							<path class="st4" d="M97.8-124.7c1.7-3.4,4.1-6.5,7.2-8.8c1.7-1.2,2.5-3.4,1.4-5.3c-1-1.7-3.6-2.7-5.3-1.4
								c-4.2,3.1-7.7,6.9-10,11.6c-0.9,1.9-0.5,4.2,1.4,5.3C94.2-122.3,96.9-122.8,97.8-124.7L97.8-124.7z"/>
						</g>
					</g>
					<g>
						<g>
							<path class="st4" d="M85-141c0.8-3.9-0.2-7.7-2.9-10.6c-1.4-1.6-4.1-1.4-5.5,0c-1.5,1.5-1.4,4,0,5.5c0.3,0.3,0.7,1.1,0.8,1.5
								c0.1,0.4,0.2,1.2,0.1,1.6c-0.4,2.1,0.6,4.2,2.7,4.8C82.2-137.7,84.6-138.9,85-141L85-141z"/>
						</g>
					</g>
					<g>
						<g>
							<path class="st4" d="M104.6-104.2c4.4,2.7,8.8,5.3,13.2,8c4.3,2.6,8.2-4.1,3.9-6.7c-4.4-2.7-8.8-5.3-13.2-8
								C104.2-113.5,100.3-106.8,104.6-104.2L104.6-104.2z"/>
						</g>
					</g>
					<g>
						<g>
							<path class="st4" d="M28-37.6c-1.8,5.5-4.2,10.8-7.1,15.9c-2.5,4.4,4.3,8.3,6.7,3.9c3.2-5.6,5.8-11.6,7.8-17.8
								c0.7-2-0.8-4.3-2.7-4.8C30.6-40.9,28.6-39.6,28-37.6L28-37.6z"/>
						</g>
					</g>
					<g>
						<g>
							<path class="st4" d="M5.4-141.2c-2.2-10.9-11.8-18.9-22.6-20.2c-2.1-0.3-3.9,2-3.9,3.9c0,2.3,1.8,3.7,3.9,3.9
								c7.2,0.9,13.6,7.1,15.1,14.5c0.4,2.1,2.9,3.3,4.8,2.7C4.8-136.9,5.8-139.1,5.4-141.2L5.4-141.2z"/>
						</g>
					</g>
					<g>
						<g>
							<path class="st4" d="M97.5-39.5c3.8,5,6.7,10.5,8.6,16.5c1.5,4.8,9,2.7,7.5-2.1c-2.1-6.6-5.2-12.9-9.4-18.4
								c-1.3-1.7-3.4-2.6-5.3-1.4C97.2-43.9,96.2-41.2,97.5-39.5L97.5-39.5z"/>
						</g>
					</g>
				</g>
			</g>
		</g>
		<g>
			<path class="st4" d="M1712.1,241.2l2.5,14.2c0,0-62.6,32.9-54.8,57.2c-9,24.1-728.1,402.2-32.8-53.4c0,0,19.2,12.9,36.7,7.4
				C1680.9,261.6,1712.1,241.2,1712.1,241.2L1712.1,241.2z"/>
			<path class="st5" d="M1712.1,241.2l2.5,14.2c0,0-62.6,32.9-54.8,57.2c-9,24.1-728.1,402.2-32.8-53.4c0,0,19.2,12.9,36.7,7.4
				C1680.9,261.6,1712.1,241.2,1712.1,241.2L1712.1,241.2z"/>
			<path class="st6" d="M1648.8,268c0,0-127.9-65.7-259.3,39.5c-92.3,82.3-96,157.1-105.8,170.6c-5.7,12-18.7,27.6-18.7,27.6
				L1555.9,338C1556.2,337.9,1650.7,297.1,1648.8,268"/>
			<path class="st1" d="M1666.3,293.3c0,0-13.3,135.9-136.2,196.6c-122.8,61.1-220.1,24.5-238.2,17.1c-14.3-3.5-18-1.8-27.8,2.9
				c9.9-13.5,196.1-115.7,217.4-128.6C1564.3,331.8,1646.6,295.5,1666.3,293.3z"/>
		</g>
	</g>
</g>
</svg>
