<?xml version="1.0" encoding="utf-8"?>
<!-- Generator: Adobe Illustrator 21.0.2, SVG Export Plug-In . SVG Version: 6.00 Build 0)  -->
<svg version="1.1" id="Layer_1" xmlns="http://www.w3.org/2000/svg" xmlns:xlink="http://www.w3.org/1999/xlink" x="0px" y="0px"
	 viewBox="0 0 556.5 713" style="enable-background:new 0 0 556.5 713;" xml:space="preserve">
<style type="text/css">
	.st0{fill:#FFFFFF;}
	.st1{fill:#A6A385;}
	.st2{fill:#499D4A;}
	.st3{fill:#58AA50;}
</style>
<g>
	<path class="st0" d="M295.2,704l-18.5-6.3c0,0,2.3-94.2-31.5-100.9c-22.5-26.1,3.6-1108.5,84.7-3.6c0,0-27.9,14-32.9,37.9
		C291.6,654.5,295.2,704,295.2,704L295.2,704z"/>
	<path class="st1" d="M295.2,704l-18.5-6.3c0,0,2.3-94.2-31.5-100.9c-22.5-26.1,3.6-1108.5,84.7-3.6c0,0-27.9,14-32.9,37.9
		C291.6,654.5,295.2,704,295.2,704L295.2,704z"/>
	<path class="st0" d="M305.1,613c0,0,161.8-106.3,123.9-327.6C392.5,124.6,306.4,71.8,297,51.6c-10.4-14.4-20.3-39.6-20.3-39.6
		l6.8,447.4C283.5,459.8,269.5,596.3,305.1,613"/>
	<path class="st2" d="M305.1,613c0,0,161.8-106.3,123.9-327.6C392.5,124.6,306.4,71.8,297,51.6c-10.4-14.4-20.3-39.6-20.3-39.6
		l6.8,447.4C283.5,459.8,269.5,596.3,305.1,613"/>
	<path class="st0" d="M267.2,618.9c0,0-151.9-103.6-142.8-286.1C133,150.2,240.2,60.6,260.9,44.4c13.5-14.4,14-19.8,14.9-34.2
		c9.5,20.3,7.7,303.3,9,336.6C288.9,475.1,277.6,594.5,267.2,618.9z"/>
	<path class="st3" d="M267.2,618.9c0,0-151.9-103.6-142.8-286.1C133,150.2,240.2,60.6,260.9,44.4c13.5-14.4,14-19.8,14.9-34.2
		c9.5,20.3,7.7,303.3,9,336.6C288.9,475.1,277.6,594.5,267.2,618.9z"/>
</g>
</svg>
